name ./resultDataOpenSim/trcMotMarkerGrf/sub09/grf-03-04.mot
datacolumns 19
datarows 17
range 0.46800000 0.53200000
endheader

                time	     ground_force_vx	     ground_force_vy	     ground_force_vz	     ground_force_px	     ground_force_py	     ground_force_pz	   l_ground_force_vx	   l_ground_force_vy	   l_ground_force_vz	   l_ground_force_px	   l_ground_force_py	   l_ground_force_pz	     ground_torque_x	     ground_torque_y	     ground_torque_z	   l_ground_torque_x	   l_ground_torque_y	   l_ground_torque_z	
          0.46800000	         35.25541018	        377.67023997	         -6.78132495	         -0.70450625	          0.00000000	          0.10422268	          0.00000000	          0.00000000	          0.00000000	          0.00000000	          0.00000000	          0.00000000	          0.00000000	          4.27454498	          0.00000000	          0.00000000	          0.00000000	          0.00000000	
          0.47200000	         39.81187421	        381.55397394	         -8.69908977	         -0.70481718	          0.00000000	          0.10462351	          0.00000000	          0.00000000	          0.00000000	          0.00000000	          0.00000000	          0.00000000	          0.00000000	          4.26444594	          0.00000000	          0.00000000	          0.00000000	          0.00000000	
          0.47600000	         44.26417264	        386.18649642	        -10.46680472	         -0.70493676	          0.00000000	          0.10503403	          0.00000000	          0.00000000	          0.00000000	          0.00000000	          0.00000000	          0.00000000	          0.00000000	          4.30359570	          0.00000000	          0.00000000	          0.00000000	          0.00000000	
          0.48000000	         48.47308256	        391.68560575	        -11.91449459	         -0.70480835	          0.00000000	          0.10543493	          0.00000000	          0.00000000	          0.00000000	          0.00000000	          0.00000000	          0.00000000	          0.00000000	          4.41832025	          0.00000000	          0.00000000	          0.00000000	          0.00000000	
          0.48400000	         52.33767884	        398.10372444	        -12.98150293	         -0.70439452	          0.00000000	          0.10581853	          0.00000000	          0.00000000	          0.00000000	          0.00000000	          0.00000000	          0.00000000	          0.00000000	          4.61769422	          0.00000000	          0.00000000	          0.00000000	          0.00000000	
          0.48800000	         55.80326031	        405.43807649	        -13.72711068	         -0.70367317	          0.00000000	          0.10618540	          0.00000000	          0.00000000	          0.00000000	          0.00000000	          0.00000000	          0.00000000	          0.00000000	          4.89111187	          0.00000000	          0.00000000	          0.00000000	          0.00000000	
          0.49200000	         58.86027101	        413.67467122	        -14.31177795	         -0.70263637	          0.00000000	          0.10654119	          0.00000000	          0.00000000	          0.00000000	          0.00000000	          0.00000000	          0.00000000	          0.00000000	          5.20978907	          0.00000000	          0.00000000	          0.00000000	          0.00000000	
          0.49600000	         61.53609259	        422.81891375	        -14.95704321	         -0.70130171	          0.00000000	          0.10689192	          0.00000000	          0.00000000	          0.00000000	          0.00000000	          0.00000000	          0.00000000	          0.00000000	          5.53212757	          0.00000000	          0.00000000	          0.00000000	          0.00000000	
          0.50000000	         63.88327113	        432.88686472	        -15.89650314	         -0.69970673	          0.00000000	          0.10723959	          0.00000000	          0.00000000	          0.00000000	          0.00000000	          0.00000000	          0.00000000	          0.00000000	          5.81214548	          0.00000000	          0.00000000	          0.00000000	          0.00000000	
          0.50400000	         65.96822569	        443.88560558	        -17.32604204	         -0.69788760	          0.00000000	          0.10758110	          0.00000000	          0.00000000	          0.00000000	          0.00000000	          0.00000000	          0.00000000	          0.00000000	          6.00924913	          0.00000000	          0.00000000	          0.00000000	          0.00000000	
          0.50800000	         67.86348249	        455.81883027	        -19.36032082	         -0.69589805	          0.00000000	          0.10791109	          0.00000000	          0.00000000	          0.00000000	          0.00000000	          0.00000000	          0.00000000	          0.00000000	          6.09689178	          0.00000000	          0.00000000	          0.00000000	          0.00000000	
          0.51200000	         69.64597403	        468.71020991	        -22.00587778	         -0.69378606	          0.00000000	          0.10823024	          0.00000000	          0.00000000	          0.00000000	          0.00000000	          0.00000000	          0.00000000	          0.00000000	          6.06778811	          0.00000000	          0.00000000	          0.00000000	          0.00000000	
          0.51600000	         71.39613949	        482.59875773	        -25.15685662	         -0.69160097	          0.00000000	          0.10852837	          0.00000000	          0.00000000	          0.00000000	          0.00000000	          0.00000000	          0.00000000	          0.00000000	          5.93452467	          0.00000000	          0.00000000	          0.00000000	          0.00000000	
          0.52000000	         73.19042198	        497.49065744	        -28.60775117	         -0.68940088	          0.00000000	          0.10878415	          0.00000000	          0.00000000	          0.00000000	          0.00000000	          0.00000000	          0.00000000	          0.00000000	          5.72594831	          0.00000000	          0.00000000	          0.00000000	          0.00000000	
          0.52400000	         75.09085066	        513.30953559	        -32.07713504	         -0.68722489	          0.00000000	          0.10897114	          0.00000000	          0.00000000	          0.00000000	          0.00000000	          0.00000000	          0.00000000	          0.00000000	          5.48078768	          0.00000000	          0.00000000	          0.00000000	          0.00000000	
          0.52800000	         77.14021777	        529.88530242	        -35.24371822	         -0.68509443	          0.00000000	          0.10906266	          0.00000000	          0.00000000	          0.00000000	          0.00000000	          0.00000000	          0.00000000	          0.00000000	          5.24026498	          0.00000000	          0.00000000	          0.00000000	          0.00000000	
          0.53200000	         79.36492371	        546.97981170	        -37.79391805	         -0.68301799	          0.00000000	          0.10903613	          0.00000000	          0.00000000	          0.00000000	          0.00000000	          0.00000000	          0.00000000	          0.00000000	          5.04115280	          0.00000000	          0.00000000	          0.00000000	          0.00000000	
